<mxfile host="app.diagrams.net" agent="Mozilla/5.0 (Windows NT 10.0; Win64; x64) AppleWebKit/537.36 (KHTML, like Gecko) Chrome/134.0.0.0 Safari/537.36" version="26.1.3">
  <diagram id="Ht1M8jgEwFfnCIfOTk4-" name="Page-1">
    <mxGraphModel dx="2440" dy="1292" grid="1" gridSize="10" guides="1" tooltips="1" connect="1" arrows="1" fold="1" page="1" pageScale="1" pageWidth="1169" pageHeight="827" math="0" shadow="0">
      <root>
        <mxCell id="0" />
        <mxCell id="1" parent="0" />
        <mxCell id="arZDA5OLZ4ichYvtWK22-1" value="VPC" style="points=[[0,0],[0.25,0],[0.5,0],[0.75,0],[1,0],[1,0.25],[1,0.5],[1,0.75],[1,1],[0.75,1],[0.5,1],[0.25,1],[0,1],[0,0.75],[0,0.5],[0,0.25]];outlineConnect=0;gradientColor=none;html=1;whiteSpace=wrap;fontSize=12;fontStyle=0;container=1;pointerEvents=0;collapsible=0;recursiveResize=0;shape=mxgraph.aws4.group;grIcon=mxgraph.aws4.group_vpc2;strokeColor=#8C4FFF;fillColor=none;verticalAlign=top;align=left;spacingLeft=30;fontColor=#AAB7B8;dashed=0;" vertex="1" parent="1">
          <mxGeometry x="440" y="320" width="1440" height="921" as="geometry" />
        </mxCell>
        <mxCell id="arZDA5OLZ4ichYvtWK22-6" value="&lt;b&gt;Private subnet&lt;/b&gt;" style="points=[[0,0],[0.25,0],[0.5,0],[0.75,0],[1,0],[1,0.25],[1,0.5],[1,0.75],[1,1],[0.75,1],[0.5,1],[0.25,1],[0,1],[0,0.75],[0,0.5],[0,0.25]];outlineConnect=0;gradientColor=none;html=1;whiteSpace=wrap;fontSize=12;fontStyle=0;container=1;pointerEvents=0;collapsible=0;recursiveResize=0;shape=mxgraph.aws4.group;grIcon=mxgraph.aws4.group_security_group;grStroke=0;strokeColor=#00A4A6;fillColor=#E6F6F7;verticalAlign=top;align=left;spacingLeft=30;fontColor=#147EBA;dashed=0;" vertex="1" parent="arZDA5OLZ4ichYvtWK22-1">
          <mxGeometry x="40" y="150" width="600" height="720" as="geometry" />
        </mxCell>
        <mxCell id="arZDA5OLZ4ichYvtWK22-15" value="" style="sketch=0;points=[[0,0,0],[0.25,0,0],[0.5,0,0],[0.75,0,0],[1,0,0],[0,1,0],[0.25,1,0],[0.5,1,0],[0.75,1,0],[1,1,0],[0,0.25,0],[0,0.5,0],[0,0.75,0],[1,0.25,0],[1,0.5,0],[1,0.75,0]];outlineConnect=0;fontColor=#232F3E;fillColor=#C925D1;strokeColor=#ffffff;dashed=0;verticalLabelPosition=bottom;verticalAlign=top;align=center;html=1;fontSize=12;fontStyle=0;aspect=fixed;shape=mxgraph.aws4.resourceIcon;resIcon=mxgraph.aws4.rds;" vertex="1" parent="arZDA5OLZ4ichYvtWK22-6">
          <mxGeometry x="208.5" y="283.5" width="203" height="203" as="geometry" />
        </mxCell>
        <mxCell id="arZDA5OLZ4ichYvtWK22-18" value="&lt;b&gt;Security group&lt;/b&gt;" style="fillColor=none;strokeColor=#DD3522;verticalAlign=top;fontStyle=0;fontColor=#DD3522;whiteSpace=wrap;html=1;" vertex="1" parent="arZDA5OLZ4ichYvtWK22-6">
          <mxGeometry x="100" y="240" width="415" height="290" as="geometry" />
        </mxCell>
        <mxCell id="arZDA5OLZ4ichYvtWK22-27" value="&lt;b&gt;Route table&lt;/b&gt;" style="sketch=0;outlineConnect=0;fontColor=#232F3E;gradientColor=none;strokeColor=#232F3E;fillColor=#ffffff;dashed=0;verticalLabelPosition=bottom;verticalAlign=top;align=center;html=1;fontSize=12;fontStyle=0;aspect=fixed;shape=mxgraph.aws4.resourceIcon;resIcon=mxgraph.aws4.route_table;" vertex="1" parent="arZDA5OLZ4ichYvtWK22-6">
          <mxGeometry x="10" y="40" width="90" height="90" as="geometry" />
        </mxCell>
        <mxCell id="arZDA5OLZ4ichYvtWK22-33" value="&lt;b style=&quot;forced-color-adjust: none; color: rgb(0, 0, 0); font-family: Helvetica; font-size: 12px; font-style: normal; font-variant-ligatures: normal; font-variant-caps: normal; letter-spacing: normal; orphans: 2; text-align: center; text-indent: 0px; text-transform: none; widows: 2; word-spacing: 0px; -webkit-text-stroke-width: 0px; white-space: nowrap; background-color: rgb(251, 251, 251); text-decoration-thickness: initial; text-decoration-style: initial; text-decoration-color: initial;&quot;&gt;&lt;font style=&quot;forced-color-adjust: none; font-size: 17px;&quot;&gt;RDS&lt;/font&gt;&lt;/b&gt;" style="text;whiteSpace=wrap;html=1;" vertex="1" parent="arZDA5OLZ4ichYvtWK22-6">
          <mxGeometry x="289.5" y="486.5" width="41" height="40" as="geometry" />
        </mxCell>
        <mxCell id="arZDA5OLZ4ichYvtWK22-8" value="&lt;b&gt;Public subnet&lt;/b&gt;" style="points=[[0,0],[0.25,0],[0.5,0],[0.75,0],[1,0],[1,0.25],[1,0.5],[1,0.75],[1,1],[0.75,1],[0.5,1],[0.25,1],[0,1],[0,0.75],[0,0.5],[0,0.25]];outlineConnect=0;gradientColor=none;html=1;whiteSpace=wrap;fontSize=12;fontStyle=0;container=1;pointerEvents=0;collapsible=0;recursiveResize=0;shape=mxgraph.aws4.group;grIcon=mxgraph.aws4.group_security_group;grStroke=0;strokeColor=#7AA116;fillColor=#F2F6E8;verticalAlign=top;align=left;spacingLeft=30;fontColor=#248814;dashed=0;" vertex="1" parent="arZDA5OLZ4ichYvtWK22-1">
          <mxGeometry x="800" y="150" width="600" height="720" as="geometry" />
        </mxCell>
        <mxCell id="arZDA5OLZ4ichYvtWK22-47" value="" style="edgeStyle=orthogonalEdgeStyle;rounded=0;orthogonalLoop=1;jettySize=auto;html=1;" edge="1" parent="arZDA5OLZ4ichYvtWK22-8" source="arZDA5OLZ4ichYvtWK22-19">
          <mxGeometry relative="1" as="geometry">
            <mxPoint x="290.02" y="49.95886130721938" as="sourcePoint" />
            <mxPoint x="290" y="236.45999999999998" as="targetPoint" />
            <Array as="points">
              <mxPoint x="290" y="190" />
              <mxPoint x="290" y="190" />
            </Array>
          </mxGeometry>
        </mxCell>
        <mxCell id="arZDA5OLZ4ichYvtWK22-19" value="" style="sketch=0;outlineConnect=0;fontColor=#232F3E;gradientColor=none;fillColor=#8C4FFF;strokeColor=none;dashed=0;verticalLabelPosition=bottom;verticalAlign=top;align=center;html=1;fontSize=12;fontStyle=0;aspect=fixed;pointerEvents=1;shape=mxgraph.aws4.internet_gateway;" vertex="1" parent="arZDA5OLZ4ichYvtWK22-8">
          <mxGeometry x="240" y="70" width="100" height="100" as="geometry" />
        </mxCell>
        <mxCell id="arZDA5OLZ4ichYvtWK22-37" value="" style="sketch=0;points=[[0,0,0],[0.25,0,0],[0.5,0,0],[0.75,0,0],[1,0,0],[0,1,0],[0.25,1,0],[0.5,1,0],[0.75,1,0],[1,1,0],[0,0.25,0],[0,0.5,0],[0,0.75,0],[1,0.25,0],[1,0.5,0],[1,0.75,0]];outlineConnect=0;fontColor=#232F3E;fillColor=#ED7100;strokeColor=#ffffff;dashed=0;verticalLabelPosition=bottom;verticalAlign=top;align=center;html=1;fontSize=12;fontStyle=0;aspect=fixed;shape=mxgraph.aws4.resourceIcon;resIcon=mxgraph.aws4.ec2;" vertex="1" parent="arZDA5OLZ4ichYvtWK22-8">
          <mxGeometry x="195" y="278" width="200" height="200" as="geometry" />
        </mxCell>
        <mxCell id="arZDA5OLZ4ichYvtWK22-38" value="&lt;b&gt;Security group&lt;/b&gt;" style="fillColor=none;strokeColor=#DD3522;verticalAlign=top;fontStyle=0;fontColor=#DD3522;whiteSpace=wrap;html=1;" vertex="1" parent="arZDA5OLZ4ichYvtWK22-8">
          <mxGeometry x="100" y="236.5" width="415" height="290" as="geometry" />
        </mxCell>
        <mxCell id="arZDA5OLZ4ichYvtWK22-39" value="&lt;b&gt;Route table&lt;/b&gt;" style="sketch=0;outlineConnect=0;fontColor=#232F3E;gradientColor=none;strokeColor=#232F3E;fillColor=#ffffff;dashed=0;verticalLabelPosition=bottom;verticalAlign=top;align=center;html=1;fontSize=12;fontStyle=0;aspect=fixed;shape=mxgraph.aws4.resourceIcon;resIcon=mxgraph.aws4.route_table;" vertex="1" parent="arZDA5OLZ4ichYvtWK22-8">
          <mxGeometry x="20" y="36.5" width="90" height="90" as="geometry" />
        </mxCell>
        <mxCell id="arZDA5OLZ4ichYvtWK22-40" value="" style="sketch=0;points=[[0,0,0],[0.25,0,0],[0.5,0,0],[0.75,0,0],[1,0,0],[0,1,0],[0.25,1,0],[0.5,1,0],[0.75,1,0],[1,1,0],[0,0.25,0],[0,0.5,0],[0,0.75,0],[1,0.25,0],[1,0.5,0],[1,0.75,0]];outlineConnect=0;fontColor=#232F3E;fillColor=#DD344C;strokeColor=#ffffff;dashed=0;verticalLabelPosition=bottom;verticalAlign=top;align=center;html=1;fontSize=12;fontStyle=0;aspect=fixed;shape=mxgraph.aws4.resourceIcon;resIcon=mxgraph.aws4.waf;" vertex="1" parent="arZDA5OLZ4ichYvtWK22-8">
          <mxGeometry x="246" y="-40" width="88" height="88" as="geometry" />
        </mxCell>
        <mxCell id="arZDA5OLZ4ichYvtWK22-41" value="&lt;b&gt;&lt;font style=&quot;font-size: 17px;&quot;&gt;Amazon EC2&lt;/font&gt;&lt;/b&gt;" style="text;html=1;align=center;verticalAlign=middle;resizable=0;points=[];autosize=1;strokeColor=none;fillColor=none;" vertex="1" parent="arZDA5OLZ4ichYvtWK22-8">
          <mxGeometry x="230" y="478" width="130" height="30" as="geometry" />
        </mxCell>
        <mxCell id="arZDA5OLZ4ichYvtWK22-48" value="EC2 (for HTTP &amp;amp; SSH)" style="text;html=1;align=center;verticalAlign=middle;resizable=0;points=[];autosize=1;strokeColor=none;fillColor=none;" vertex="1" parent="arZDA5OLZ4ichYvtWK22-8">
          <mxGeometry x="285" y="180" width="150" height="30" as="geometry" />
        </mxCell>
        <mxCell id="arZDA5OLZ4ichYvtWK22-21" value="&lt;b&gt;Port 3306&lt;/b&gt;" style="text;html=1;align=center;verticalAlign=middle;resizable=0;points=[];autosize=1;strokeColor=none;fillColor=none;" vertex="1" parent="arZDA5OLZ4ichYvtWK22-1">
          <mxGeometry x="680" y="510" width="80" height="30" as="geometry" />
        </mxCell>
        <mxCell id="arZDA5OLZ4ichYvtWK22-43" value="" style="edgeStyle=orthogonalEdgeStyle;html=1;endArrow=none;elbow=vertical;startArrow=block;startFill=1;strokeColor=#545B64;rounded=0;entryX=0.241;entryY=0.529;entryDx=0;entryDy=0;entryPerimeter=0;exitX=0.747;exitY=0.517;exitDx=0;exitDy=0;exitPerimeter=0;" edge="1" parent="arZDA5OLZ4ichYvtWK22-1" source="arZDA5OLZ4ichYvtWK22-18" target="arZDA5OLZ4ichYvtWK22-38">
          <mxGeometry width="100" relative="1" as="geometry">
            <mxPoint x="470" y="540" as="sourcePoint" />
            <mxPoint x="570" y="540" as="targetPoint" />
          </mxGeometry>
        </mxCell>
        <mxCell id="arZDA5OLZ4ichYvtWK22-34" value="" style="sketch=0;points=[[0,0,0],[0.25,0,0],[0.5,0,0],[0.75,0,0],[1,0,0],[0,1,0],[0.25,1,0],[0.5,1,0],[0.75,1,0],[1,1,0],[0,0.25,0],[0,0.5,0],[0,0.75,0],[1,0.25,0],[1,0.5,0],[1,0.75,0]];outlineConnect=0;fontColor=#232F3E;fillColor=#8C4FFF;strokeColor=#ffffff;dashed=0;verticalLabelPosition=bottom;verticalAlign=top;align=center;html=1;fontSize=12;fontStyle=0;aspect=fixed;shape=mxgraph.aws4.resourceIcon;resIcon=mxgraph.aws4.cloudfront;" vertex="1" parent="1">
          <mxGeometry x="1960" y="360" width="160" height="160" as="geometry" />
        </mxCell>
        <mxCell id="arZDA5OLZ4ichYvtWK22-35" value="" style="sketch=0;points=[[0,0,0],[0.25,0,0],[0.5,0,0],[0.75,0,0],[1,0,0],[0,1,0],[0.25,1,0],[0.5,1,0],[0.75,1,0],[1,1,0],[0,0.25,0],[0,0.5,0],[0,0.75,0],[1,0.25,0],[1,0.5,0],[1,0.75,0]];outlineConnect=0;fontColor=#232F3E;fillColor=#DD344C;strokeColor=#ffffff;dashed=0;verticalLabelPosition=bottom;verticalAlign=top;align=center;html=1;fontSize=12;fontStyle=0;aspect=fixed;shape=mxgraph.aws4.resourceIcon;resIcon=mxgraph.aws4.guardduty;" vertex="1" parent="1">
          <mxGeometry x="1960" y="680" width="160" height="160" as="geometry" />
        </mxCell>
        <mxCell id="arZDA5OLZ4ichYvtWK22-36" value="" style="outlineConnect=0;dashed=0;verticalLabelPosition=bottom;verticalAlign=top;align=center;html=1;shape=mxgraph.aws3.flow_logs;fillColor=#F58534;gradientColor=none;" vertex="1" parent="1">
          <mxGeometry x="1965" y="1000" width="150" height="160" as="geometry" />
        </mxCell>
      </root>
    </mxGraphModel>
  </diagram>
</mxfile>
